<svg width="31" height="31" viewBox="0 0 31 31" fill="none" xmlns="http://www.w3.org/2000/svg">
<path d="M16.8768 0.969289C16.4121 0.551021 15.809 0.31958 15.1838 0.31958C14.5586 0.31958 13.9555 0.551021 13.4908 0.969289L0 13.1113V26.2706C0 27.3444 0.426591 28.3743 1.18593 29.1337C1.94527 29.893 2.97515 30.3196 4.04901 30.3196H26.3186C27.3925 30.3196 28.4223 29.893 29.1817 29.1337C29.941 28.3743 30.3676 27.3444 30.3676 26.2706V13.1113L16.8768 0.969289ZM18.9798 27.7852H11.3879V21.4257C11.3879 20.4189 11.7878 19.4534 12.4997 18.7415C13.2115 18.0296 14.1771 17.6297 15.1838 17.6297C16.1906 17.6297 17.1561 18.0296 17.8679 18.7415C18.5798 19.4534 18.9798 20.4189 18.9798 21.4257V27.7852ZM27.837 26.2668C27.837 26.6695 27.677 27.0557 27.3923 27.3404C27.1075 27.6252 26.7213 27.7852 26.3186 27.7852H21.5104V21.4257C21.5104 19.7478 20.8438 18.1386 19.6574 16.9521C18.4709 15.7656 16.8617 15.0991 15.1838 15.0991C13.5059 15.0991 11.8967 15.7656 10.7102 16.9521C9.52377 18.1386 8.85722 19.7478 8.85722 21.4257V27.7852H4.04901C3.64631 27.7852 3.26011 27.6252 2.97536 27.3404C2.69061 27.0557 2.53063 26.6695 2.53063 26.2668V14.2374L15.1838 2.84955L27.837 14.2374V26.2668Z" fill="white"/>
</svg>
